<?xml version="1.0" standalone="no"?>
<svg xmlns="http://www.w3.org/2000/svg" viewBox="0 0 307.008 29" width="307.008" height="29"><g fill="#00936f" color="#00936f" transform="translate(0, 0) scale(0.58)"><svg width="50.0" height="50.0" x="0.0" y="0.0" viewBox="0 0 50 50"><path fill="currentColor" fill-rule="nonzero" d="M23.16.25v22.52H.65v26.61h26.61V26.86h22.52V.25H23.16zm0 45.03H4.74V26.86h18.42v18.42zm22.52-22.52H27.25V4.34h18.42v18.42h.01zM31.35 8.43h10.23v10.23H31.35V8.43zM8.83 30.95h10.23v10.23H8.83V30.95z"></path></svg></g><line x1="41" y1="1" x2="41" y2="28" stroke="#1c2149" stroke-linecap="round"></line><path fill="#1c2149" fill-rule="nonzero" d="M6.53 15.77L6.53 15.77Q3.24 15.77 1.42 13.06L1.42 13.06Q0 10.94 0 7.92L0 7.92Q0 4.42 1.87 2.16L1.87 2.16Q3.65 0 6.53 0L6.53 0Q9.82 0 11.64 2.74L11.64 2.74Q13.06 4.90 13.06 7.92L13.06 7.92Q13.06 11.42 11.18 13.66L11.18 13.66Q9.41 15.77 6.53 15.77ZM1.90 7.92L1.90 7.92Q1.90 10.94 3.22 12.65L3.22 12.65Q4.44 14.21 6.53 14.21L6.53 14.21Q8.93 14.21 10.15 12.19L10.15 12.19Q11.16 10.54 11.16 7.92L11.16 7.92Q11.16 4.90 9.84 3.17L9.84 3.17Q8.62 1.54 6.53 1.54L6.53 1.54Q4.15 1.54 2.90 3.62L2.90 3.62Q1.90 5.30 1.90 7.92ZM18.19 3.34L18.19 15.48L16.42 15.48L16.42 0.29L18.02 0.29Q20.21 3.58 25.63 12.67L25.63 12.67L25.63 0.29L27.41 0.29L27.41 15.48L25.75 15.48Q24.46 13.54 20.47 7.08L20.47 7.08Q18.79 4.34 18.19 3.34L18.19 3.34ZM38.90 16.20L38.90 17.52L29.69 17.52L29.69 16.20L38.90 16.20ZM42.96 15.48L41.18 15.48L41.18 0.29Q43.32 0 44.88 0L44.88 0Q50.26 0 50.26 4.61L50.26 4.61Q50.26 7.75 47.57 8.83L47.57 8.83L50.62 15.48L48.82 15.48L46.01 9.26L45.98 9.24Q45.58 9.29 44.98 9.29L44.98 9.29Q44.04 9.29 42.96 9.14L42.96 9.14L42.96 15.48ZM42.96 1.58L42.96 1.58L42.96 7.70Q43.82 7.85 44.88 7.85L44.88 7.85Q48.38 7.85 48.38 4.61L48.38 4.61Q48.38 1.42 44.88 1.42L44.88 1.42Q43.78 1.42 42.96 1.58ZM61.90 10.06L61.90 10.58L54.12 10.58Q54.22 12.34 55.33 13.39Q56.45 14.45 58.22 14.45L58.22 14.45Q59.71 14.45 61.13 13.56L61.13 13.56L61.68 14.52Q60.10 15.77 57.86 15.77L57.86 15.77Q55.27 15.77 53.74 14.06L53.74 14.06Q52.32 12.53 52.32 10.08L52.32 10.08Q52.32 7.54 53.83 5.83L53.83 5.83Q55.20 4.30 57.22 4.30L57.22 4.30Q59.64 4.30 60.91 6.26L60.91 6.26Q61.90 7.80 61.90 10.06L61.90 10.06ZM54.10 9.29L54.10 9.29L60.24 9.29Q60.17 7.54 59.39 6.55Q58.61 5.57 57.24 5.57L57.24 5.57Q55.94 5.57 55.07 6.60Q54.19 7.63 54.10 9.29ZM71.16 5.33L70.63 6.22Q69.43 5.59 68.02 5.59L68.02 5.59Q67.06 5.59 66.52 6.01Q65.98 6.43 65.98 7.15L65.98 7.15Q65.98 7.92 66.47 8.34Q66.96 8.76 68.35 9.17L68.35 9.17Q70.32 9.77 71.09 10.51Q71.86 11.26 71.86 12.60L71.86 12.60Q71.86 14.02 70.79 14.89Q69.72 15.77 68.04 15.77L68.04 15.77Q65.83 15.77 64.20 14.57L64.20 14.57Q64.27 14.45 64.44 14.16L64.44 14.16Q64.61 13.85 64.73 13.68L64.73 13.68Q66.12 14.45 67.73 14.45L67.73 14.45Q70.25 14.45 70.25 12.55L70.25 12.55Q70.25 11.78 69.71 11.35Q69.17 10.92 67.70 10.54L67.70 10.54Q64.30 9.58 64.30 7.20L64.30 7.20Q64.30 5.93 65.29 5.11Q66.29 4.30 67.85 4.30L67.85 4.30Q69.70 4.30 71.16 5.33L71.16 5.33ZM83.50 10.06L83.50 10.58L75.72 10.58Q75.82 12.34 76.93 13.39Q78.05 14.45 79.82 14.45L79.82 14.45Q81.31 14.45 82.73 13.56L82.73 13.56L83.28 14.52Q81.70 15.77 79.46 15.77L79.46 15.77Q76.87 15.77 75.34 14.06L75.34 14.06Q73.92 12.53 73.92 10.08L73.92 10.08Q73.92 7.54 75.43 5.83L75.43 5.83Q76.80 4.30 78.82 4.30L78.82 4.30Q81.24 4.30 82.51 6.26L82.51 6.26Q83.50 7.80 83.50 10.06L83.50 10.06ZM75.70 9.29L75.70 9.29L81.84 9.29Q81.77 7.54 80.99 6.55Q80.21 5.57 78.84 5.57L78.84 5.57Q77.54 5.57 76.67 6.60Q75.79 7.63 75.70 9.29ZM93.62 5.52L93.62 5.52L92.30 6.43Q91.49 5.71 90.55 5.71L90.55 5.71Q89.18 5.71 88.13 7.13L88.13 7.13L88.13 15.48L86.52 15.48L86.52 4.58L87.89 4.58L88.03 5.74L88.08 5.74Q89.50 4.30 90.98 4.30L90.98 4.30Q92.74 4.30 93.62 5.52ZM104.88 4.58L100.75 15.48L99.12 15.48L95.02 4.58L96.74 4.58L99.96 13.58L103.15 4.58L104.88 4.58ZM114.86 8.86L114.86 15.48L113.66 15.48L113.42 14.30Q111.96 15.77 109.78 15.77L109.78 15.77Q108.12 15.77 107.14 14.84Q106.15 13.92 106.15 12.38L106.15 12.38Q106.15 8.64 111.62 8.64L111.62 8.64L113.28 8.64L113.28 8.50Q113.28 5.64 110.50 5.64L110.50 5.64Q108.91 5.64 107.45 6.70L107.45 6.70L106.92 5.81Q108.58 4.30 110.95 4.30L110.95 4.30Q112.85 4.30 113.86 5.47Q114.86 6.65 114.86 8.86L114.86 8.86ZM113.28 12.77L113.28 9.82L111.82 9.82Q107.88 9.82 107.88 12.24L107.88 12.24Q107.88 13.27 108.49 13.86Q109.10 14.45 110.21 14.45L110.21 14.45Q111.17 14.45 112.06 13.97Q112.94 13.49 113.28 12.77L113.28 12.77ZM124.30 5.90L120.96 5.90L120.94 12.72Q120.94 14.47 122.35 14.47L122.35 14.47Q123.14 14.47 123.91 14.06L123.91 14.06L124.49 14.95Q123.31 15.77 122.02 15.77L122.02 15.77Q120.74 15.77 120.05 14.98Q119.35 14.18 119.35 12.77L119.35 12.77L119.35 5.90L117.70 5.90L117.70 4.58L119.38 4.58L119.38 2.21L120.96 1.39L120.96 4.58L124.30 4.58L124.30 5.90ZM127.49 4.58L129.07 4.58L129.07 15.48L127.49 15.48L127.49 4.58ZM127.25 1.03L127.25 1.03Q127.25 0.62 127.56 0.31Q127.87 0 128.30 0L128.30 0Q128.74 0 129.05 0.31Q129.36 0.62 129.36 1.03L129.36 1.03Q129.36 1.49 129.05 1.79Q128.74 2.09 128.30 2.09L128.30 2.09Q127.85 2.09 127.55 1.79Q127.25 1.49 127.25 1.03ZM142.70 10.06L142.70 10.06Q142.70 12.65 141.07 14.30L141.07 14.30Q139.61 15.77 137.47 15.77L137.47 15.77Q135.00 15.77 133.49 13.90L133.49 13.90Q132.22 12.31 132.22 10.06L132.22 10.06Q132.22 7.42 133.80 5.78L133.80 5.78Q135.24 4.30 137.47 4.30L137.47 4.30Q139.99 4.30 141.48 6.19L141.48 6.19Q142.70 7.78 142.70 10.06ZM133.94 10.06L133.94 10.06Q133.94 12.14 135.02 13.37L135.02 13.37Q135.98 14.45 137.45 14.45L137.45 14.45Q139.03 14.45 140.00 13.24Q140.98 12.02 140.98 10.06L140.98 10.06Q140.98 7.99 139.92 6.74L139.92 6.74Q138.96 5.59 137.47 5.59L137.47 5.59Q135.89 5.59 134.92 6.83Q133.94 8.06 133.94 10.06ZM154.90 8.98L154.90 15.48L153.31 15.48L153.31 9.10Q153.31 5.69 150.34 5.69L150.34 5.69Q149.47 5.69 148.63 6.10Q147.79 6.50 147.34 7.13L147.34 7.13L147.34 15.48L145.73 15.48L145.73 4.58L147.07 4.58L147.22 5.74L147.29 5.74Q148.70 4.30 150.84 4.30L150.84 4.30Q154.90 4.30 154.90 8.98L154.90 8.98ZM164.76 5.33L164.23 6.22Q163.03 5.59 161.62 5.59L161.62 5.59Q160.66 5.59 160.12 6.01Q159.58 6.43 159.58 7.15L159.58 7.15Q159.58 7.92 160.07 8.34Q160.56 8.76 161.95 9.17L161.95 9.17Q163.92 9.77 164.69 10.51Q165.46 11.26 165.46 12.60L165.46 12.60Q165.46 14.02 164.39 14.89Q163.32 15.77 161.64 15.77L161.64 15.77Q159.43 15.77 157.80 14.57L157.80 14.57Q157.87 14.45 158.04 14.16L158.04 14.16Q158.21 13.85 158.33 13.68L158.33 13.68Q159.72 14.45 161.33 14.45L161.33 14.45Q163.85 14.45 163.85 12.55L163.85 12.55Q163.85 11.78 163.31 11.35Q162.77 10.92 161.30 10.54L161.30 10.54Q157.90 9.58 157.90 7.20L157.90 7.20Q157.90 5.93 158.89 5.11Q159.89 4.30 161.45 4.30L161.45 4.30Q163.30 4.30 164.76 5.33L164.76 5.33ZM167.83 14.23L167.83 14.23L168.60 13.15Q170.35 14.16 172.32 14.16L172.32 14.16Q173.83 14.16 174.70 13.45Q175.56 12.74 175.56 11.45L175.56 11.45Q175.56 9.24 172.66 8.23L172.66 8.23Q170.18 7.39 169.08 6.36Q167.98 5.33 167.98 3.84L167.98 3.84Q167.98 2.06 169.37 0.98L169.37 0.98Q170.64 0 172.70 0L172.70 0Q174.96 0 176.81 1.25L176.81 1.25L176.02 2.33Q174.53 1.54 172.82 1.54L172.82 1.54Q171.43 1.54 170.62 2.14Q169.80 2.74 169.80 3.77L169.80 3.77Q169.80 5.38 172.30 6.31L172.30 6.31Q175.13 7.39 176.27 8.53Q177.41 9.67 177.41 11.50L177.41 11.50Q177.41 13.58 175.80 14.78L175.80 14.78Q174.48 15.77 172.58 15.77L172.58 15.77Q170.21 15.77 167.83 14.23ZM190.39 10.06L190.39 10.06Q190.39 12.65 188.76 14.30L188.76 14.30Q187.30 15.77 185.16 15.77L185.16 15.77Q182.69 15.77 181.18 13.90L181.18 13.90Q179.90 12.31 179.90 10.06L179.90 10.06Q179.90 7.42 181.49 5.78L181.49 5.78Q182.93 4.30 185.16 4.30L185.16 4.30Q187.68 4.30 189.17 6.19L189.17 6.19Q190.39 7.78 190.39 10.06ZM181.63 10.06L181.63 10.06Q181.63 12.14 182.71 13.37L182.71 13.37Q183.67 14.45 185.14 14.45L185.14 14.45Q186.72 14.45 187.69 13.24Q188.66 12.02 188.66 10.06L188.66 10.06Q188.66 7.99 187.61 6.74L187.61 6.74Q186.65 5.59 185.16 5.59L185.16 5.59Q183.58 5.59 182.60 6.83Q181.63 8.06 181.63 10.06ZM192.55 5.88L192.55 4.58L194.11 4.58L194.11 3Q194.11 1.58 194.81 0.79Q195.50 0 196.78 0L196.78 0Q198.07 0 199.25 0.82L199.25 0.82L198.67 1.70Q197.88 1.30 197.11 1.30L197.11 1.30Q195.70 1.30 195.70 3.07L195.70 3.07L195.70 4.58L198.43 4.58L198.43 5.88L195.70 5.88L195.70 15.48L194.11 15.48L194.11 5.88L192.55 5.88ZM207.22 5.90L203.88 5.90L203.86 12.72Q203.86 14.47 205.27 14.47L205.27 14.47Q206.06 14.47 206.83 14.06L206.83 14.06L207.41 14.95Q206.23 15.77 204.94 15.77L204.94 15.77Q203.66 15.77 202.97 14.98Q202.27 14.18 202.27 12.77L202.27 12.77L202.27 5.90L200.62 5.90L200.62 4.58L202.30 4.58L202.30 2.21L203.88 1.39L203.88 4.58L207.22 4.58L207.22 5.90ZM216.77 6.53L214.10 15.48L212.38 15.48L208.78 4.58L210.50 4.58L213.24 13.61L215.86 4.58L217.70 4.58L220.20 13.61L222.94 4.58L224.66 4.58L221.04 15.48L219.31 15.48L216.77 6.53ZM234.65 8.86L234.65 15.48L233.45 15.48L233.21 14.30Q231.74 15.77 229.56 15.77L229.56 15.77Q227.90 15.77 226.92 14.84Q225.94 13.92 225.94 12.38L225.94 12.38Q225.94 8.64 231.41 8.64L231.41 8.64L233.06 8.64L233.06 8.50Q233.06 5.64 230.28 5.64L230.28 5.64Q228.70 5.64 227.23 6.70L227.23 6.70L226.70 5.81Q228.36 4.30 230.74 4.30L230.74 4.30Q232.63 4.30 233.64 5.47Q234.65 6.65 234.65 8.86L234.65 8.86ZM233.06 12.77L233.06 9.82L231.60 9.82Q227.66 9.82 227.66 12.24L227.66 12.24Q227.66 13.27 228.28 13.86Q228.89 14.45 229.99 14.45L229.99 14.45Q230.95 14.45 231.84 13.97Q232.73 13.49 233.06 12.77L233.06 12.77ZM245.45 5.52L245.45 5.52L244.13 6.43Q243.31 5.71 242.38 5.71L242.38 5.71Q241.01 5.71 239.95 7.13L239.95 7.13L239.95 15.48L238.34 15.48L238.34 4.58L239.71 4.58L239.86 5.74L239.90 5.74Q241.32 4.30 242.81 4.30L242.81 4.30Q244.56 4.30 245.45 5.52ZM256.01 10.06L256.01 10.58L248.23 10.58Q248.33 12.34 249.44 13.39Q250.56 14.45 252.34 14.45L252.34 14.45Q253.82 14.45 255.24 13.56L255.24 13.56L255.79 14.52Q254.21 15.77 251.98 15.77L251.98 15.77Q249.38 15.77 247.85 14.06L247.85 14.06Q246.43 12.53 246.43 10.08L246.43 10.08Q246.43 7.54 247.94 5.83L247.94 5.83Q249.31 4.30 251.33 4.30L251.33 4.30Q253.75 4.30 255.02 6.26L255.02 6.26Q256.01 7.80 256.01 10.06L256.01 10.06ZM248.21 9.29L248.21 9.29L254.35 9.29Q254.28 7.54 253.50 6.55Q252.72 5.57 251.35 5.57L251.35 5.57Q250.06 5.57 249.18 6.60Q248.30 7.63 248.21 9.29Z" transform="translate(51, 6.76)"></path></svg>